<?xml version="1.0" encoding="utf-8"?>
<!-- Generator: Adobe Illustrator 26.3.1, SVG Export Plug-In . SVG Version: 6.00 Build 0)  -->
<svg version="1.1" id="Layer_1" xmlns="http://www.w3.org/2000/svg" xmlns:xlink="http://www.w3.org/1999/xlink" x="0px" y="0px"
	 viewBox="0 0 595.28 841.89" style="enable-background:new 0 0 595.28 841.89;" xml:space="preserve">
<style type="text/css">
	.st0{fill:#FFFFFF;}
	.st1{fill:none;}
	.st2{fill:#B4D69D;stroke:#1D1D1B;stroke-miterlimit:10;}
</style>
<path class="st0" d="M284.04,404.14c-1.03-4.09-2.06-8.17-3.32-13.18c3.66,2.45,6.26,4.19,9.61,6.43c-1.23,2.2-2.58,4.62-3.93,7.05
	C285.62,404.34,284.83,404.24,284.04,404.14z"/>
<line class="st1" x1="418" y1="257" x2="418" y2="251"/>
<line class="st1" x1="420" y1="296" x2="309" y2="386"/>
<circle class="st2" cx="170" cy="512" r="70.5"/>
<path d="M186.26,495c-1.53,0-3.06,0-5.04,0c0.4,16.53,1.62,32.54,11,46.69c-12.67-2.71-25.27-5.78-38.02-7.97
	c-5.64-0.97-11.57-0.16-17.37-0.54c11.36-4.88,22.73-0.13,36.4,0.86c-13.26-13.18-21.82-25.57-15.91-43.61
	c4.9-14.96,9.51-29.44,24.93-37.01c-2.92,3.56-5.52,7.45-8.81,10.62c-8.8,8.49-11.87,19.22-14.28,30.81
	c-4.03,19.41,7.77,32.03,20.08,39.65c1.6,0.99,3.66,1.25,7.21,2.39c-2.18-5.4-4.3-9.3-5.29-13.47c-1.08-4.5-1.19-9.24-1.57-13.89
	c-0.3-3.69-0.48-7.39-0.47-11.09c0.01-1.58,0.62-4.51,0.99-4.52C182.15,493.88,184.21,494.56,186.26,495z"/>
<path d="M108.78,515.54c4.8,3.26,7.46,8.88,10.58,14.43c5.12,9.12,14.48,13.68,22.89,18.68c4.44,2.63,10.66,2.11,16.08,3.02
	c-13.33,6.52-21.41-0.04-29.51-5.93C119.53,538.98,113.86,527.56,108.78,515.54z"/>
<path d="M204.45,513.85c0.19-8.56,0.45-17.11,0.48-25.67c0-1.2-1.48-2.34-1.77-3.62c-1.42-6.3-2.68-12.64-3.99-18.97
	c6.61,11.42,8.52,23.97,9.1,36.89c0.08,1.77,1.5,3.48,2.3,5.22C208.52,509.76,206.49,511.8,204.45,513.85z"/>
<path d="M141.45,508.78c-5.68-0.75-11.39-2.18-17.04-1.98c-3.26,0.12-6.4,2.94-9.66,4.43c-1.91,0.87-3.93,1.5-5.9,2.24
	c0.58-0.91,1.16-1.83,1.96-3.1c-1.37-0.76-2.62-1.46-3.87-2.15c5.81-1.12,11.58-2.67,17.45-3.2c4.28-0.39,8.68,0.61,13.04,0.84
	c0.7,0.04,1.45-0.75,2.18-1.15C140.22,506.05,140.84,507.42,141.45,508.78z"/>
<path d="M149.88,524.1c-6.1-2.3-12.09-4.71-18.37-6.83c-2.5-0.84-5.66-1.01-8.53-1.48c5.71,1.73,11.44,3.43,17.13,5.18
	C143.39,521.99,146.62,523.06,149.88,524.1z"/>
<path d="M185.88,511.23c4.04-7.18,8.08-14.36,12.12-21.54C198.05,499.17,192.18,505.32,185.88,511.23z"/>
<path d="M216.9,556.72c-8.53-8.58-20.71-8.25-30.94-12.67c1.93-0.66,3.86-1.31,6.28-2.13c-0.04-9.56,1.18-19.41,6.61-29.15
	c-1.57,9.01-3.18,17.05-4.31,25.16c-0.85,6.1,4.07,8.61,8.44,8.88C210.16,547.25,214.08,550.86,216.9,556.72z"/>
</svg>
